<svg xmlns="http://www.w3.org/2000/svg" width="22.664" height="27.232" viewBox="0 0 22.664 27.232">
    <defs>
        <style>
            .cls-1{fill:#fff}
        </style>
    </defs>
    <g id="automobile-with-wrench" transform="translate(-30.265)">
        <path id="Path_8" d="M105.684 14.882c1.821 0 6.1-2.191 6.1-7.441 0-.732-.018-1.44-.078-2.108a6.308 6.308 0 0 0-1.039-3.375C109.807.742 108.3 0 105.684 0s-4.123.742-4.983 1.957a6.307 6.307 0 0 0-1.04 3.376c-.06.668-.078 1.376-.078 2.108 0 5.25 4.28 7.441 6.101 7.441zm1.991-12.156l-.444 1.123a5.042 5.042 0 0 0-3.094 0l-.445-1.123a6.249 6.249 0 0 1 3.983 0zM100.491 6.3c.07.154.369.745.831.8.531.064 1.413-1.882 4.362-1.886s3.831 1.95 4.362 1.886c.462-.055.761-.647.831-.8.014.377.02.758.02 1.138a6.635 6.635 0 0 1-2.084 5.038 5.328 5.328 0 0 1-3.129 1.515 5.329 5.329 0 0 1-3.129-1.515 6.634 6.634 0 0 1-2.084-5.038c0-.377.005-.759.02-1.138z" class="cls-1" data-name="Path 8" transform="translate(-64.087)"/>
        <path id="Path_9" d="M52.923 196.368c-.312-1.937-.953-4.432-2.239-5.318-.878-.606-3.943-2.243-5.251-2.942l-.022-.012a.428.428 0 0 0-.466.041 5.56 5.56 0 0 1-2.232 1.078.427.427 0 0 0-.307.266l-.81 2.135-.81-2.135a.427.427 0 0 0-.307-.266 5.559 5.559 0 0 1-2.232-1.078.428.428 0 0 0-.466-.041c-1.293.691-4.395 2.362-5.27 2.951-1.481 1-2.128 4.607-2.243 5.321a.43.43 0 0 0 .019.211c.031.089.521 1.357 2.97 2.377a1.217 1.217 0 0 1 .541-.389 1.207 1.207 0 0 1-.658-1.718 3.579 3.579 0 0 1 6.117-.277h4.673a3.585 3.585 0 0 1 2.971-1.589 3.585 3.585 0 0 1 3.142 1.857 1.207 1.207 0 0 1-.654 1.72 1.215 1.215 0 0 1 .548.394c2.443-1.019 2.932-2.285 2.963-2.374a.43.43 0 0 0 .023-.212z" class="cls-1" data-name="Path 9" transform="translate(0 -173.855)"/>
        <path id="Path_10" d="M95.369 297.469h-2.252a4.253 4.253 0 0 1 0-1.973h2.251a.152.152 0 0 0 .133-.225 2.524 2.524 0 0 0-4.557.28H85a2.522 2.522 0 0 0-4.558-.273.152.152 0 0 0 .133.225h2.252a4.253 4.253 0 0 1 0 1.973h-2.251a.152.152 0 0 0-.133.225 2.525 2.525 0 0 0 2.212 1.309 2.524 2.524 0 0 0 2.341-1.589h5.936a2.528 2.528 0 0 0 2.342 1.589 2.526 2.526 0 0 0 2.212-1.316.152.152 0 0 0-.133-.225z" class="cls-1" data-name="Path 10" transform="translate(-46.378 -271.778)"/>
    </g>
</svg>
