<svg xmlns="http://www.w3.org/2000/svg" width="355" height="347" viewBox="0 0 355 347">
    <defs>
        <style>
            .cls-1{fill:#fff;opacity:.85}.cls-2{opacity:.08;clip-path:url(#clip-path)}
        </style>
        <clipPath id="clip-path">
            <path id="Rectangle_28" d="M0 0h355v347H0z" class="cls-1" data-name="Rectangle 28" transform="translate(1069 135)"/>
        </clipPath>
    </defs>
    <g id="Mask_Group_1" class="cls-2" data-name="Mask Group 1" transform="translate(-1069 -135)">
        <g id="automobile-with-wrench" transform="translate(1243.999 135)">
            <path id="Path_11" d="M173.5 189.633c23.2 0 77.742-27.919 77.742-94.817 0-9.331-.227-18.346-1-26.863-1.263-16.762-4.7-31.617-13.243-43C226.039 9.459 206.857 0 173.5 0S120.968 9.455 110 24.943c-8.553 11.387-11.988 26.246-13.25 43.014-.768 8.516-1 17.529-1 26.86.009 66.897 54.55 94.816 77.75 94.816zm25.376-154.9c-2.264 5.723-3.4 8.584-5.664 14.306-14.625-4.132-24.8-4.132-39.426 0-2.265-5.722-3.4-8.583-5.665-14.306 18.292-5.533 32.468-5.533 50.756.003zm-91.552 45.578c.9 1.959 4.7 9.491 10.591 10.2 6.771.813 18.009-23.978 55.586-24.038 37.576.061 48.815 24.851 55.586 24.038 5.89-.707 9.695-8.238 10.591-10.2.182 4.8.249 9.66.249 14.506 0 32.7-14.439 52.961-26.552 64.2-15.262 14.162-32.207 19.3-39.873 19.3s-24.611-5.14-39.873-19.3c-12.114-11.238-26.552-31.5-26.552-64.2-.001-4.846.065-9.706.247-14.506z" data-name="Path 11"/>
            <path id="Path_12" d="M317.831 286.874c-3.97-24.679-12.139-56.469-28.529-67.766-11.193-7.718-50.242-28.58-66.917-37.488l-.282-.15a5.449 5.449 0 0 0-5.932.52 70.844 70.844 0 0 1-28.439 13.736 5.446 5.446 0 0 0-3.91 3.386l-10.321 27.2-10.322-27.2a5.445 5.445 0 0 0-3.91-3.386 70.836 70.836 0 0 1-28.437-13.736 5.451 5.451 0 0 0-5.934-.52c-16.476 8.8-56 30.093-67.148 37.606-18.868 12.71-27.116 58.708-28.579 67.8a5.472 5.472 0 0 0 .243 2.686c.4 1.129 6.64 17.292 37.846 30.287a15.5 15.5 0 0 1 6.891-4.954A15.384 15.384 0 0 1 65.763 293a45.6 45.6 0 0 1 77.946-3.535h59.549a45.688 45.688 0 0 1 37.856-20.247h.019a45.686 45.686 0 0 1 40.04 23.657 15.386 15.386 0 0 1-8.329 21.913 15.48 15.48 0 0 1 6.989 5.023c31.126-12.988 37.357-29.121 37.757-30.248a5.487 5.487 0 0 0 .241-2.689z" data-name="Path 12"/>
            <path id="Path_13" d="M267.725 327.364l-28.691.039c-.509-1.208-1.486-4.562-1.5-12.563s.952-11.362 1.46-12.573l28.683-.042a1.939 1.939 0 0 0 1.7-2.872 32.166 32.166 0 0 0-58.067 3.571h-75.651a32.137 32.137 0 0 0-58.081-3.473 1.934 1.934 0 0 0 1.7 2.864l28.691-.045c.511 1.208 1.486 4.562 1.5 12.566s-.952 11.361-1.46 12.57l-28.683.043a1.936 1.936 0 0 0-1.693 2.871A32.18 32.18 0 0 0 105.821 347h.047a32.16 32.16 0 0 0 29.825-20.252h75.646A32.211 32.211 0 0 0 241.187 347h.045a32.188 32.188 0 0 0 28.192-16.769 1.935 1.935 0 0 0-1.7-2.865z" data-name="Path 13"/>
        </g>
    </g>
</svg>
