<svg xmlns="http://www.w3.org/2000/svg" width="27.405" height="27.405" viewBox="0 0 27.405 27.405">
    <defs>
        <style>
            .cls-1{fill:#fff}
        </style>
    </defs>
    <g id="calendar-with-a-clock-time-tools" transform="translate(-.001)">
        <path id="Path_15" d="M3.427 4.282V.856a.856.856 0 0 1 1.713 0v3.426a.856.856 0 0 1-1.713 0zm14.559.856a.856.856 0 0 0 .856-.856V.856a.857.857 0 0 0-1.713 0v3.426a.856.856 0 0 0 .857.857zm9.42 15.415a6.851 6.851 0 1 1-6.851-6.853 6.852 6.852 0 0 1 6.851 6.854zm-1.713 0a5.139 5.139 0 1 0-5.139 5.139 5.144 5.144 0 0 0 5.14-5.138zM6.852 10.277H3.427V13.7h3.425zm-3.425 8.564h3.425v-3.426H3.427zM8.565 13.7h3.426v-3.423H8.565zm0 5.139h3.426v-3.424H8.565zm-6.851 1.545V8.564h18.841v3.426h1.713V5.309a1.869 1.869 0 0 0-1.855-1.884H19.7v.857a1.713 1.713 0 1 1-3.425 0v-.856H6v.857a1.713 1.713 0 1 1-3.426 0v-.857h-.717A1.87 1.87 0 0 0 0 5.309v15.075a1.872 1.872 0 0 0 1.856 1.883h10.135v-1.713H1.857a.162.162 0 0 1-.143-.17zM17.129 13.7v-3.423H13.7V13.7zm6 6.851h-2.574v-2.567a.856.856 0 0 0-1.713 0v3.426a.856.856 0 0 0 .856.856h3.426a.857.857 0 0 0 0-1.713z" class="cls-1" data-name="Path 15"/>
    </g>
</svg>
