<svg xmlns="http://www.w3.org/2000/svg" width="24.837" height="27.398" viewBox="0 0 24.837 27.398">
    <defs>
        <style>
            .cls-1{fill:#12191f}
        </style>
    </defs>
    <g id="call-center-operator" transform="translate(-1.581)">
        <path id="Path_23" d="M26.418 23.754V27.4H1.581v-3.647a5.916 5.916 0 0 1 3.3-4.7l4.033-1.916 2.8 5.834 1.433-3.886a4.592 4.592 0 0 0 .858.125 4.6 4.6 0 0 0 .858-.125l1.36 3.7 2.744-5.707 4.163 1.98a5.918 5.918 0 0 1 3.288 4.696zM5.244 10.982V8.35a1.261 1.261 0 0 1 .583-1.062 8.229 8.229 0 0 1 16.349 0 1.262 1.262 0 0 1 .582 1.062v2.632a1.266 1.266 0 1 1-2.531 0v-.553c-.685 3.446-3.208 6.644-6.226 6.644s-5.54-3.2-6.226-6.644v.553a1.263 1.263 0 0 1-.891 1.2 7.385 7.385 0 0 0 3.165 4.167 1.291 1.291 0 0 1 .994.105c.56.292.846.858.634 1.263a1.028 1.028 0 0 1-1.4.2 1.225 1.225 0 0 1-.7-.912 8.2 8.2 0 0 1-3.537-4.85 1.264 1.264 0 0 1-.796-1.173zm1.446-3.99a.369.369 0 0 1 .111.017.4.4 0 0 1 .2.177 1.261 1.261 0 0 1 .628.594c.373-3.5 3.078-5.35 6.367-5.35s5.994 1.851 6.367 5.35a1.255 1.255 0 0 1 .96-.678 7.412 7.412 0 0 0-14.633-.11z" class="cls-1" data-name="Path 23"/>
    </g>
</svg>
