<svg xmlns="http://www.w3.org/2000/svg" width="25.19" height="24.544" viewBox="0 0 25.19 24.544">
    <defs>
        <style>
            .cls-1{fill:#dedede}
        </style>
    </defs>
    <g id="old-telephone-ringing" transform="translate(.001 -.439)">
        <path id="Path_16" d="M19.095 16.079c-1.6-.375-3.647-1.354-4.39-2.57a2.107 2.107 0 0 1-.122-2.1c.017-.035.049-.087.075-.129a1.187 1.187 0 0 1 .119-.582c.007-.017.007-.021.012-.03H6.561l.01.021c.185.29.346.546.432.712a2.106 2.106 0 0 1-.118 2.1C6.144 14.724 4.1 15.7 2.5 16.078L2.052 23.5a1.3 1.3 0 0 0 1.185 1.48h15.115a1.3 1.3 0 0 0 1.185-1.48zM8.324 21.192H6.9a.474.474 0 0 1 0-.948h1.424a.474.474 0 0 1 0 .948zm0-1.8H6.9a.473.473 0 1 1 0-.947h1.424a.473.473 0 1 1 0 .947zm0-1.8H6.9a.474.474 0 0 1 0-.948h1.424a.474.474 0 0 1 0 .948zm3.181 3.61h-1.42a.474.474 0 0 1 0-.948H11.5a.474.474 0 1 1 0 .948zm0-1.8h-1.42a.473.473 0 1 1 0-.947H11.5a.473.473 0 1 1 0 .947zm0-1.8h-1.42a.474.474 0 0 1 0-.948H11.5a.474.474 0 1 1 0 .948zm3.182 3.61h-1.42a.474.474 0 1 1 0-.948h1.419a.474.474 0 1 1 0 .948zm0-1.8h-1.42a.473.473 0 1 1 0-.947h1.419a.473.473 0 1 1 0 .947zm0-1.8h-1.42a.474.474 0 1 1 0-.948h1.419a.474.474 0 1 1 0 .948zM20.3 7.572a1.9 1.9 0 0 1 .015.393 14.613 14.613 0 0 1-.767 2.216c-.317.944-5.109.227-4.809-1.005a11.661 11.661 0 0 0 .626-2.24c-.041-.415-.65-.6-1.148-.522-1.321.205-2.955.7-4.329 1.04-.037.01-.076.016-.115.027s-.076.018-.115.028c-1.377.323-3.055.627-4.327 1.044-.482.159-.937.6-.784.99a11.587 11.587 0 0 0 1.577 1.709c.829.961-3.113 3.783-3.824 3.084a14.551 14.551 0 0 1-1.693-1.623 2.2 2.2 0 0 1-.166-.357C-.89 9.647.875 6.132 4.521 4.937a70.58 70.58 0 0 1 4.217-1.234V3.7l.116-.024.114-.032v.007c1.429-.318 2.869-.6 4.316-.823 3.792-.601 6.965 1.725 7.016 4.744zm4.157 3.148l-1.011-.476a6.615 6.615 0 0 0-3.159-8.8l.474-1.01a7.735 7.735 0 0 1 3.692 10.286zm-1.748-.82L21.7 9.423a4.686 4.686 0 0 0-2.239-6.229l.475-1.008A5.8 5.8 0 0 1 22.709 9.9z" class="cls-1" data-name="Path 16"/>
    </g>
</svg>
